<svg xmlns="http://www.w3.org/2000/svg" xmlns:xlink="http://www.w3.org/1999/xlink" viewBox="0,0,256,256" width="48px" height="48px" fill-rule="nonzero"><defs><linearGradient x1="24.083" y1="8.738" x2="24.083" y2="34.67" gradientUnits="userSpaceOnUse" id="color-1"><stop offset="0" stop-color="#ffac00"></stop><stop offset="0.966" stop-color="#fe651e"></stop></linearGradient></defs><g fill="url(#color-1)" fill-rule="nonzero" stroke="none" stroke-width="1" stroke-linecap="butt" stroke-linejoin="miter" stroke-miterlimit="10" stroke-dasharray="" stroke-dashoffset="0" font-family="none" font-weight="none" font-size="none" text-anchor="none" style="mix-blend-mode: normal"><g transform="scale(5.33333,5.33333)"><path d="M10,33.018c0.596,0 1.265,0 2,0v-13.977c-1.11,1.001 -1.699,2.212 -2,3.121zM21,18.105c-0.675,-0.316 -1.752,-0.715 -3,-0.837v15.749c0.976,0 1.98,0 3,0zM14,33.018c0.943,0 1.95,0 3,0v-15.778c-1.173,0.03 -2.171,0.23 -3,0.558zM4,23.953c-1.178,0.896 -2,2.35 -2,4.039c0,1.586 0.795,2.987 2,3.905zM40.995,22.016c-1.444,0 -2.283,0.521 -2.283,0.521c0,0 -0.839,-8.488 -9.271,-8.488c-4.906,0 -6.83,2.704 -7.441,3.897v15.071c8.825,0 18.297,0 18.297,0c0,0 5.869,-0.094 5.869,-5.453c0,-4.125 -3.727,-5.548 -5.171,-5.548zM8,23.1c-0.395,-0.051 -0.842,-0.088 -1.341,-0.088c-0.223,0 -0.441,0.037 -0.659,0.073v9.767c0.423,0.104 0.861,0.166 1.311,0.166c0.151,0 0.393,0 0.689,0z"></path></g></g></svg>