<svg xmlns="http://www.w3.org/2000/svg" xmlns:xlink="http://www.w3.org/1999/xlink" viewBox="0,0,256,256" width="48px" height="48px" fill-rule="nonzero"><g fill="#ffa500" fill-rule="nonzero" stroke="none" stroke-width="1" stroke-linecap="butt" stroke-linejoin="miter" stroke-miterlimit="10" stroke-dasharray="" stroke-dashoffset="0" font-family="none" font-weight="none" font-size="none" text-anchor="none" style="mix-blend-mode: normal"><g transform="scale(10.66667,10.66667)"><path d="M15.293,8.293l-2.586,-2.586c-0.391,-0.391 -1.024,-0.391 -1.414,0l-2.586,2.586c-0.391,0.391 -0.391,1.024 0,1.414l2.586,2.586c0.391,0.391 1.024,0.391 1.414,0l2.586,-2.586c0.39,-0.39 0.39,-1.024 0,-1.414zM7.793,8.293l-2.586,-2.586c-0.391,-0.391 -1.024,-0.391 -1.414,0l-2.586,2.586c-0.391,0.391 -0.391,1.024 0,1.414l2.586,2.586c0.391,0.391 1.024,0.391 1.414,0l2.586,-2.586c0.39,-0.39 0.39,-1.024 0,-1.414zM22.793,8.293l-2.586,-2.586c-0.391,-0.391 -1.024,-0.391 -1.414,0l-2.586,2.586c-0.391,0.391 -0.391,1.024 0,1.414l2.586,2.586c0.391,0.391 1.024,0.391 1.414,0l2.586,-2.586c0.39,-0.39 0.39,-1.024 0,-1.414zM15.293,15.793l-2.586,-2.586c-0.391,-0.391 -1.024,-0.391 -1.414,0l-2.586,2.586c-0.391,0.391 -0.391,1.024 0,1.414l2.586,2.586c0.391,0.391 1.024,0.391 1.414,0l2.586,-2.586c0.39,-0.39 0.39,-1.024 0,-1.414z"></path></g></g></svg>